<svg width="583" height="84" viewBox="0 0 583 84" fill="none" xmlns="http://www.w3.org/2000/svg">
<g clip-path="url(#clip0_2407_322365)">
<path d="M6.91509 54.5002C4.50219 54.498 2.28056 53.2416 1.11277 51.2186C-0.0550291 49.1957 0.0149606 46.7249 1.29556 44.7656L13.2442 26.4895C14.4714 24.4995 16.7291 23.3042 19.1408 23.3675C21.5524 23.4309 23.7384 24.7429 24.85 26.7944C25.9616 28.8458 25.8239 31.3136 24.4903 33.2398L12.5488 51.5159C11.3342 53.3754 9.20468 54.5035 6.91509 54.5002Z" fill="#FB275D"/>
<path d="M27.2728 54.5002C24.8639 54.4981 22.6459 53.2446 21.48 51.2264C20.3141 49.2083 20.384 46.7434 21.6625 44.7888L33.588 26.5561C34.796 24.537 37.0616 23.3131 39.4914 23.3668C41.9212 23.4206 44.1253 24.7434 45.2346 26.8137C46.3439 28.884 46.1805 31.3696 44.8087 33.2903L32.8832 51.523C31.6732 53.374 29.5536 54.4988 27.2728 54.5002Z" fill="#FFCC00"/>
<path d="M47.1208 54.5373C50.7701 54.5373 53.7284 51.5841 53.7284 47.9411C53.7284 44.2982 50.7701 41.345 47.1208 41.345C43.4715 41.345 40.5132 44.2982 40.5132 47.9411C40.5132 51.5841 43.4715 54.5373 47.1208 54.5373Z" fill="#00CA72"/>
<path d="M101.841 24.9353C105.463 24.9353 108.337 26.0323 110.461 28.2265C112.62 30.4206 113.7 33.468 113.7 37.3687V54.3993H104.819V38.5702C104.819 36.6895 104.314 35.2442 103.304 34.2342C102.329 33.1894 100.971 32.667 99.2292 32.667C97.4878 32.667 96.1121 33.1894 95.1021 34.2342C94.127 35.2442 93.6394 36.6895 93.6394 38.5702V54.3993H84.7584V38.5702C84.7584 36.6895 84.2534 35.2442 83.2434 34.2342C82.2682 33.1894 80.91 32.667 79.1686 32.667C77.4272 32.667 76.0515 33.1894 75.0415 34.2342C74.0664 35.2442 73.5788 36.6895 73.5788 38.5702V54.3993H64.6456V25.2487H73.5788V28.9056C74.4843 27.6866 75.6684 26.7289 77.1312 26.0323C78.5939 25.301 80.2482 24.9353 82.0941 24.9353C84.2882 24.9353 86.2386 25.4055 87.9451 26.3458C89.6865 27.2861 91.0447 28.627 92.0199 30.3684C93.0299 28.7663 94.4056 27.4603 96.147 26.4503C97.8883 25.4403 99.7864 24.9353 101.841 24.9353Z" fill="#333333"/>
<path d="M131.65 54.8172C128.794 54.8172 126.217 54.2077 123.918 52.9888C121.654 51.7698 119.861 50.0284 118.537 47.7646C117.249 45.5009 116.604 42.854 116.604 39.824C116.604 36.8288 117.266 34.1994 118.589 31.9356C119.913 29.637 121.724 27.8782 124.022 26.6592C126.321 25.4403 128.898 24.8308 131.754 24.8308C134.61 24.8308 137.187 25.4403 139.486 26.6592C141.784 27.8782 143.595 29.637 144.919 31.9356C146.242 34.1994 146.904 36.8288 146.904 39.824C146.904 42.8192 146.225 45.466 144.867 47.7646C143.543 50.0284 141.715 51.7698 139.381 52.9888C137.083 54.2077 134.506 54.8172 131.65 54.8172ZM131.65 47.0855C133.356 47.0855 134.802 46.4586 135.986 45.2048C137.205 43.951 137.814 42.1574 137.814 39.824C137.814 37.4906 137.222 35.697 136.038 34.4432C134.889 33.1894 133.461 32.5625 131.754 32.5625C130.013 32.5625 128.567 33.1894 127.418 34.4432C126.269 35.6621 125.694 37.4557 125.694 39.824C125.694 42.1574 126.251 43.951 127.366 45.2048C128.515 46.4586 129.943 47.0855 131.65 47.0855Z" fill="#333333"/>
<path d="M167.838 24.9353C171.251 24.9353 173.968 26.0498 175.988 28.2787C178.043 30.4728 179.07 33.5028 179.07 37.3687V54.3993H170.189V38.5702C170.189 36.6199 169.684 35.1049 168.674 34.0252C167.664 32.9456 166.306 32.4058 164.599 32.4058C162.893 32.4058 161.534 32.9456 160.524 34.0252C159.514 35.1049 159.009 36.6199 159.009 38.5702V54.3993H150.076V25.2487H159.009V29.1146C159.915 27.826 161.134 26.816 162.666 26.0846C164.199 25.3184 165.923 24.9353 167.838 24.9353Z" fill="#333333"/>
<path d="M181.934 39.7718C181.934 36.7766 182.491 34.1471 183.606 31.8833C184.755 29.6196 186.305 27.8782 188.255 26.6592C190.206 25.4403 192.382 24.8308 194.786 24.8308C196.701 24.8308 198.442 25.2313 200.01 26.0323C201.612 26.8334 202.865 27.913 203.771 29.2713V15.7408H212.704V54.3993H203.771V50.22C202.935 51.6131 201.734 52.7276 200.166 53.5634C198.634 54.3993 196.84 54.8172 194.786 54.8172C192.382 54.8172 190.206 54.2077 188.255 52.9888C186.305 51.735 184.755 49.9762 183.606 47.7124C182.491 45.4138 181.934 42.7669 181.934 39.7718ZM203.771 39.824C203.771 37.595 203.144 35.8363 201.89 34.5476C200.671 33.259 199.174 32.6147 197.398 32.6147C195.621 32.6147 194.106 33.259 192.853 34.5476C191.634 35.8014 191.024 37.5428 191.024 39.7718C191.024 42.0007 191.634 43.7769 192.853 45.1004C194.106 46.389 195.621 47.0333 197.398 47.0333C199.174 47.0333 200.671 46.389 201.89 45.1004C203.144 43.8117 203.771 42.053 203.771 39.824Z" fill="#333333"/>
<path d="M215.824 39.7718C215.824 36.7766 216.381 34.1471 217.495 31.8833C218.645 29.6196 220.194 27.8782 222.145 26.6592C224.095 25.4403 226.272 24.8308 228.675 24.8308C230.73 24.8308 232.523 25.2487 234.056 26.0846C235.623 26.9204 236.825 28.0175 237.66 29.3758V25.2487H246.594V54.3993H237.66V50.2722C236.79 51.6305 235.571 52.7276 234.003 53.5634C232.471 54.3993 230.677 54.8172 228.623 54.8172C226.254 54.8172 224.095 54.2077 222.145 52.9888C220.194 51.735 218.645 49.9762 217.495 47.7124C216.381 45.4138 215.824 42.7669 215.824 39.7718ZM237.66 39.824C237.66 37.595 237.033 35.8363 235.78 34.5476C234.561 33.259 233.063 32.6147 231.287 32.6147C229.511 32.6147 227.996 33.259 226.742 34.5476C225.523 35.8014 224.914 37.5428 224.914 39.7718C224.914 42.0007 225.523 43.7769 226.742 45.1004C227.996 46.389 229.511 47.0333 231.287 47.0333C233.063 47.0333 234.561 46.389 235.78 45.1004C237.033 43.8117 237.66 42.053 237.66 39.824Z" fill="#333333"/>
<path d="M281.267 25.2487L262.982 68.2432H253.37L260.057 53.4067L248.198 25.2487H258.176L264.915 43.4809L271.602 25.2487H281.267Z" fill="#333333"/>
</g>
<path d="M333.183 26.756C335.209 26.756 337.022 27.1807 338.622 28.03C340.256 28.8793 341.53 30.186 342.444 31.95C343.392 33.6813 343.865 35.8047 343.865 38.32V54H340.484V38.712C340.484 35.8047 339.749 33.5833 338.279 32.048C336.842 30.5127 334.866 29.745 332.35 29.745C329.77 29.745 327.712 30.5617 326.176 32.195C324.641 33.8283 323.873 36.2293 323.873 39.398V54H320.443V17.74H323.873V31.803C324.723 30.2023 325.964 28.961 327.597 28.079C329.263 27.197 331.125 26.756 333.183 26.756ZM374.657 39.251C374.657 40.427 374.625 41.3253 374.559 41.946H352.362C352.46 43.9713 352.95 45.7027 353.832 47.14C354.714 48.5773 355.874 49.6717 357.311 50.423C358.749 51.1417 360.317 51.501 362.015 51.501C364.237 51.501 366.099 50.962 367.601 49.884C369.137 48.806 370.149 47.3523 370.639 45.523H374.265C373.612 48.1363 372.207 50.276 370.051 51.942C367.928 53.5753 365.249 54.392 362.015 54.392C359.5 54.392 357.246 53.8367 355.253 52.726C353.261 51.5827 351.693 49.982 350.549 47.924C349.439 45.8333 348.883 43.3997 348.883 40.623C348.883 37.8463 349.439 35.4127 350.549 33.322C351.66 31.2313 353.212 29.6307 355.204 28.52C357.197 27.4093 359.467 26.854 362.015 26.854C364.563 26.854 366.785 27.4093 368.679 28.52C370.607 29.6307 372.077 31.1333 373.089 33.028C374.135 34.89 374.657 36.9643 374.657 39.251ZM371.178 39.153C371.211 37.1603 370.803 35.4617 369.953 34.057C369.137 32.6523 368.01 31.5907 366.572 30.872C365.135 30.1533 363.567 29.794 361.868 29.794C359.32 29.794 357.148 30.6107 355.351 32.244C353.555 33.8773 352.558 36.1803 352.362 39.153H371.178ZM383.363 17.74V54H379.933V17.74H383.363ZM393.511 33.126C394.36 31.3293 395.7 29.843 397.529 28.667C399.391 27.4583 401.596 26.854 404.144 26.854C406.561 26.854 408.734 27.4257 410.661 28.569C412.621 29.6797 414.14 31.2803 415.218 33.371C416.329 35.429 416.884 37.83 416.884 40.574C416.884 43.318 416.329 45.7353 415.218 47.826C414.14 49.9167 412.621 51.5337 410.661 52.677C408.734 53.8203 406.561 54.392 404.144 54.392C401.629 54.392 399.44 53.804 397.578 52.628C395.716 51.4193 394.36 49.9167 393.511 48.12V66.642H390.13V27.246H393.511V33.126ZM413.405 40.574C413.405 38.3527 412.964 36.4417 412.082 34.841C411.233 33.2077 410.057 31.9663 408.554 31.117C407.051 30.2677 405.353 29.843 403.458 29.843C401.629 29.843 399.946 30.284 398.411 31.166C396.908 32.048 395.716 33.3057 394.834 34.939C393.952 36.5723 393.511 38.467 393.511 40.623C393.511 42.779 393.952 44.6737 394.834 46.307C395.716 47.9403 396.908 49.198 398.411 50.08C399.946 50.962 401.629 51.403 403.458 51.403C405.353 51.403 407.051 50.9783 408.554 50.129C410.057 49.247 411.233 47.9893 412.082 46.356C412.964 44.69 413.405 42.7627 413.405 40.574ZM433.074 40.623C433.074 37.8463 433.629 35.429 434.74 33.371C435.85 31.2803 437.386 29.6797 439.346 28.569C441.306 27.4257 443.543 26.854 446.059 26.854C449.358 26.854 452.069 27.6707 454.193 29.304C456.349 30.9373 457.737 33.1587 458.358 35.968H454.683C454.225 34.0407 453.229 32.538 451.694 31.46C450.191 30.3493 448.313 29.794 446.059 29.794C444.262 29.794 442.645 30.2023 441.208 31.019C439.77 31.8357 438.627 33.0607 437.778 34.694C436.961 36.2947 436.553 38.271 436.553 40.623C436.553 42.975 436.961 44.9677 437.778 46.601C438.627 48.2343 439.77 49.4593 441.208 50.276C442.645 51.0927 444.262 51.501 446.059 51.501C448.313 51.501 450.191 50.962 451.694 49.884C453.229 48.7733 454.225 47.238 454.683 45.278H458.358C457.737 48.022 456.349 50.227 454.193 51.893C452.037 53.559 449.325 54.392 446.059 54.392C443.543 54.392 441.306 53.8367 439.346 52.726C437.386 51.5827 435.85 49.982 434.74 47.924C433.629 45.8333 433.074 43.3997 433.074 40.623ZM487.898 39.251C487.898 40.427 487.866 41.3253 487.8 41.946H465.603C465.701 43.9713 466.191 45.7027 467.073 47.14C467.955 48.5773 469.115 49.6717 470.552 50.423C471.99 51.1417 473.558 51.501 475.256 51.501C477.478 51.501 479.34 50.962 480.842 49.884C482.378 48.806 483.39 47.3523 483.88 45.523H487.506C486.853 48.1363 485.448 50.276 483.292 51.942C481.169 53.5753 478.49 54.392 475.256 54.392C472.741 54.392 470.487 53.8367 468.494 52.726C466.502 51.5827 464.934 49.982 463.79 47.924C462.68 45.8333 462.124 43.3997 462.124 40.623C462.124 37.8463 462.68 35.4127 463.79 33.322C464.901 31.2313 466.453 29.6307 468.445 28.52C470.438 27.4093 472.708 26.854 475.256 26.854C477.804 26.854 480.026 27.4093 481.92 28.52C483.848 29.6307 485.318 31.1333 486.33 33.028C487.376 34.89 487.898 36.9643 487.898 39.251ZM484.419 39.153C484.452 37.1603 484.044 35.4617 483.194 34.057C482.378 32.6523 481.251 31.5907 479.813 30.872C478.376 30.1533 476.808 29.794 475.109 29.794C472.561 29.794 470.389 30.6107 468.592 32.244C466.796 33.8773 465.799 36.1803 465.603 39.153H484.419ZM505.718 26.756C508.919 26.756 511.533 27.7523 513.558 29.745C515.583 31.705 516.596 34.5633 516.596 38.32V54H513.215V38.712C513.215 35.8047 512.48 33.5833 511.01 32.048C509.573 30.5127 507.596 29.745 505.081 29.745C502.5 29.745 500.442 30.5617 498.907 32.195C497.372 33.8283 496.604 36.2293 496.604 39.398V54H493.174V27.246H496.604V31.803C497.453 30.1697 498.678 28.9283 500.279 28.079C501.88 27.197 503.693 26.756 505.718 26.756ZM527.641 30.137V46.748C527.641 48.3813 527.951 49.5083 528.572 50.129C529.192 50.7497 530.287 51.06 531.855 51.06H534.991V54H531.316C528.898 54 527.102 53.4447 525.926 52.334C524.75 51.1907 524.162 49.3287 524.162 46.748V30.137H520.438V27.246H524.162V20.533H527.641V27.246H534.991V30.137H527.641ZM563.854 39.251C563.854 40.427 563.821 41.3253 563.756 41.946H541.559C541.657 43.9713 542.147 45.7027 543.029 47.14C543.911 48.5773 545.07 49.6717 546.508 50.423C547.945 51.1417 549.513 51.501 551.212 51.501C553.433 51.501 555.295 50.962 556.798 49.884C558.333 48.806 559.346 47.3523 559.836 45.523H563.462C562.808 48.1363 561.404 50.276 559.248 51.942C557.124 53.5753 554.446 54.392 551.212 54.392C548.696 54.392 546.442 53.8367 544.45 52.726C542.457 51.5827 540.889 49.982 539.746 47.924C538.635 45.8333 538.08 43.3997 538.08 40.623C538.08 37.8463 538.635 35.4127 539.746 33.322C540.856 31.2313 542.408 29.6307 544.401 28.52C546.393 27.4093 548.664 26.854 551.212 26.854C553.76 26.854 555.981 27.4093 557.876 28.52C559.803 29.6307 561.273 31.1333 562.286 33.028C563.331 34.89 563.854 36.9643 563.854 39.251ZM560.375 39.153C560.407 37.1603 559.999 35.4617 559.15 34.057C558.333 32.6523 557.206 31.5907 555.769 30.872C554.331 30.1533 552.763 29.794 551.065 29.794C548.517 29.794 546.344 30.6107 544.548 32.244C542.751 33.8773 541.755 36.1803 541.559 39.153H560.375ZM572.559 31.999C573.31 30.333 574.454 29.0427 575.989 28.128C577.557 27.2133 579.468 26.756 581.722 26.756V30.333H580.791C578.308 30.333 576.316 31.0027 574.813 32.342C573.31 33.6813 572.559 35.919 572.559 39.055V54H569.129V27.246H572.559V31.999Z" fill="#333333"/>
<line opacity="0.6" x1="299.963" y1="22.9633" x2="299.963" y2="59.9835" stroke="#333333" stroke-width="1.92664" stroke-linecap="round"/>
<defs>
<clipPath id="clip0_2407_322365">
<rect width="282" height="60" fill="white" transform="translate(0 11)"/>
</clipPath>
</defs>
</svg>
