<svg width="25" height="24" viewBox="0 0 25 24" fill="none" xmlns="http://www.w3.org/2000/svg">
<g clip-path="url(#clip0_1620_321485)">
<path d="M9.92885 21.4285H3.07171C2.61705 21.4285 2.18102 21.2479 1.85952 20.9264C1.53803 20.605 1.35742 20.1689 1.35742 19.7143V2.5714C1.35742 2.11675 1.53803 1.68071 1.85952 1.35922C2.18102 1.03773 2.61705 0.857117 3.07171 0.857117H21.9289C22.3835 0.857117 22.8195 1.03773 23.141 1.35922C23.4625 1.68071 23.6431 2.11675 23.6431 2.5714V11.1428" stroke="black" stroke-width="1.71429" stroke-linecap="round" stroke-linejoin="round"/>
<path d="M1.35742 6H23.6431" stroke="black" stroke-width="1.71429" stroke-linecap="round" stroke-linejoin="round"/>
<path d="M22.375 19.3792L19.6056 16.6098L20.9903 15.225C21.0774 15.1368 21.1393 15.0268 21.1693 14.9064C21.1994 14.7861 21.1966 14.6599 21.1612 14.5411C21.1258 14.4222 21.0592 14.315 20.9682 14.2307C20.8772 14.1464 20.7653 14.0881 20.6441 14.0619L14.2328 12.4764C14.1171 12.4479 13.9961 12.4498 13.8813 12.4818C13.7666 12.5138 13.662 12.5748 13.5778 12.6591C13.4936 12.7433 13.4325 12.8479 13.4005 12.9626C13.3685 13.0774 13.3666 13.1984 13.3951 13.3141L14.9806 19.7254C15.0105 19.8444 15.0715 19.9533 15.1574 20.0409C15.2432 20.1286 15.3508 20.1919 15.4692 20.2243C15.5875 20.2567 15.7123 20.257 15.8309 20.2253C15.9494 20.1936 16.0574 20.131 16.1437 20.0439L17.5285 18.6592L20.2979 21.4286L22.375 19.3792Z" stroke="black" stroke-width="1.4" stroke-linecap="round" stroke-linejoin="round"/>
</g>
<defs>
<clipPath id="clip0_1620_321485">
<rect width="24" height="24" fill="white" transform="translate(0.5)"/>
</clipPath>
</defs>
</svg>
